<svg width="640" height="360" viewBox="0 0 640 360" fill="none" xmlns="http://www.w3.org/2000/svg">
  <rect width="640" height="360" fill="#F7F3E9"/>
  <text x="40" y="50" font-family="Arial, sans-serif" font-size="28" font-weight="700" fill="#1F3A5F">Two-Way Table</text>
  <text x="40" y="80" font-family="Arial, sans-serif" font-size="18" fill="#456B8C">Rows and columns organize counts for two categories at once.</text>
  <rect x="110" y="120" width="420" height="170" rx="8" fill="#FFFDF8" stroke="#335C81" stroke-width="3"/>
  <line x1="110" y1="165" x2="530" y2="165" stroke="#335C81" stroke-width="2"/>
  <line x1="110" y1="210" x2="530" y2="210" stroke="#335C81" stroke-width="2"/>
  <line x1="110" y1="255" x2="530" y2="255" stroke="#335C81" stroke-width="2"/>
  <line x1="230" y1="120" x2="230" y2="290" stroke="#335C81" stroke-width="2"/>
  <line x1="360" y1="120" x2="360" y2="290" stroke="#335C81" stroke-width="2"/>
  <line x1="460" y1="120" x2="460" y2="290" stroke="#335C81" stroke-width="2"/>
  <text x="145" y="148" font-family="Arial, sans-serif" font-size="18" font-weight="700" fill="#1F3A5F">Group</text>
  <text x="258" y="148" font-family="Arial, sans-serif" font-size="18" font-weight="700" fill="#1F3A5F">Choice A</text>
  <text x="386" y="148" font-family="Arial, sans-serif" font-size="18" font-weight="700" fill="#1F3A5F">Choice B</text>
  <text x="485" y="148" font-family="Arial, sans-serif" font-size="18" font-weight="700" fill="#1F3A5F">Total</text>
  <text x="150" y="193" font-family="Arial, sans-serif" font-size="20" fill="#335C81">Row 1</text>
  <text x="150" y="238" font-family="Arial, sans-serif" font-size="20" fill="#335C81">Row 2</text>
  <text x="137" y="283" font-family="Arial, sans-serif" font-size="20" font-weight="700" fill="#335C81">Column total</text>
  <text x="292" y="193" font-family="Arial, sans-serif" font-size="20" fill="#C26D42">12</text>
  <text x="420" y="193" font-family="Arial, sans-serif" font-size="20" fill="#C26D42">8</text>
  <text x="493" y="193" font-family="Arial, sans-serif" font-size="20" fill="#C26D42">20</text>
  <text x="292" y="238" font-family="Arial, sans-serif" font-size="20" fill="#C26D42">9</text>
  <text x="420" y="238" font-family="Arial, sans-serif" font-size="20" fill="#C26D42">11</text>
  <text x="493" y="238" font-family="Arial, sans-serif" font-size="20" fill="#C26D42">20</text>
  <text x="286" y="283" font-family="Arial, sans-serif" font-size="20" font-weight="700" fill="#C26D42">21</text>
  <text x="414" y="283" font-family="Arial, sans-serif" font-size="20" font-weight="700" fill="#C26D42">19</text>
  <text x="488" y="283" font-family="Arial, sans-serif" font-size="20" font-weight="700" fill="#C26D42">40</text>
</svg>
